<svg width="160" height="160" viewBox="0 0 160 160" fill="none" xmlns="http://www.w3.org/2000/svg">
<path d="M143.864 79.8645C143.864 115.211 115.211 143.864 79.8645 143.864C44.5182 143.864 15.8645 115.211 15.8645 79.8645C15.8645 44.5182 44.5182 15.8645 79.8645 15.8645C115.211 15.8645 143.864 44.5182 143.864 79.8645ZM19.0645 79.8645C19.0645 113.443 46.2856 140.664 79.8645 140.664C113.443 140.664 140.664 113.443 140.664 79.8645C140.664 46.2856 113.443 19.0645 79.8645 19.0645C46.2856 19.0645 19.0645 46.2856 19.0645 79.8645Z" fill="white"/>
<circle cx="27.3346" cy="65.3865" r="3" transform="rotate(-31.8222 27.3346 65.3865)" fill="white"/>
<path d="M28.7908 59.1888C27.3062 58.5878 26.5832 56.8934 27.2576 55.4406C33.2274 42.5808 43.7219 32.3184 56.791 26.6515C69.8602 20.9847 84.5242 20.3383 97.9917 24.7699C99.5131 25.2705 100.256 26.9564 99.6798 28.4509V28.4509C99.1038 29.9453 97.4272 30.6816 95.9031 30.1894C83.8581 26.3 70.7714 26.9113 59.0984 31.9728C47.4253 37.0343 38.0345 46.1694 32.6412 57.6201C31.9588 59.0691 30.2753 59.7898 28.7908 59.1888V59.1888Z" fill="white"/>
<path d="M75.5 112C75.5 114.485 77.5147 116.5 80 116.5C82.4853 116.5 84.5 114.485 84.5 112H75.5ZM83.182 43.818C81.4246 42.0607 78.5754 42.0607 76.818 43.818L48.1802 72.4558C46.4228 74.2132 46.4228 77.0624 48.1802 78.8198C49.9376 80.5772 52.7868 80.5772 54.5442 78.8198L80 53.364L105.456 78.8198C107.213 80.5772 110.062 80.5772 111.82 78.8198C113.577 77.0624 113.577 74.2132 111.82 72.4558L83.182 43.818ZM84.5 112V47H75.5V112H84.5Z" fill="white"/>
</svg>
