<svg width="160" height="160" viewBox="0 0 160 160" fill="none" xmlns="http://www.w3.org/2000/svg">
<path d="M144 80C144 115.346 115.346 144 80 144C44.6538 144 16 115.346 16 80C16 44.6538 44.6538 16 80 16C115.346 16 144 44.6538 144 80ZM19.2 80C19.2 113.579 46.4211 140.8 80 140.8C113.579 140.8 140.8 113.579 140.8 80C140.8 46.4211 113.579 19.2 80 19.2C46.4211 19.2 19.2 46.4211 19.2 80Z" fill="white"/>
<circle cx="27.4701" cy="65.522" r="3" transform="rotate(-31.8222 27.4701 65.522)" fill="white"/>
<path d="M28.9263 59.3243C27.4417 58.7233 26.7187 57.0289 27.3931 55.5762C33.363 42.7163 43.8574 32.4539 56.9266 26.7871C69.9957 21.1202 84.6597 20.4738 98.1273 24.9054C99.6486 25.4061 100.391 27.0919 99.8154 28.5864V28.5864C99.2394 30.0808 97.5627 30.8171 96.0386 30.3249C83.9937 26.4355 70.907 27.0469 59.2339 32.1084C47.5609 37.1699 38.1701 46.3049 32.7767 57.7556C32.0943 59.2046 30.4109 59.9253 28.9263 59.3243V59.3243Z" fill="white"/>
</svg>
