<svg width="263" height="55" viewBox="0 0 263 55" fill="none" xmlns="http://www.w3.org/2000/svg">
<path d="M6.875 0.818181L6.46307 31.1364H1.68466L1.27273 0.818181H6.875ZM4.07386 43.3295C3.05777 43.3295 2.18584 42.9657 1.4581 42.2379C0.730351 41.5102 0.366477 40.6383 0.366477 39.6222C0.366477 38.6061 0.730351 37.7341 1.4581 37.0064C2.18584 36.2786 3.05777 35.9148 4.07386 35.9148C5.08996 35.9148 5.96188 36.2786 6.68963 37.0064C7.41738 37.7341 7.78125 38.6061 7.78125 39.6222C7.78125 40.295 7.60961 40.9129 7.26634 41.4759C6.93679 42.0388 6.49053 42.492 5.92756 42.8352C5.37831 43.1648 4.76042 43.3295 4.07386 43.3295ZM17.2505 43V0.818181H22.3585V38.4688H41.9664V43H17.2505ZM62.4806 43.6591C59.4324 43.6591 56.8029 42.9863 54.5922 41.6406C52.3952 40.2812 50.6994 38.3864 49.5048 35.956C48.3239 33.5118 47.7335 30.6695 47.7335 27.429C47.7335 24.1884 48.3239 21.3324 49.5048 18.8608C50.6994 16.3755 52.3609 14.4394 54.4892 13.0526C56.6312 11.652 59.1303 10.9517 61.9863 10.9517C63.6341 10.9517 65.2612 11.2263 66.8677 11.7756C68.4743 12.3248 69.9366 13.2173 71.2548 14.4531C72.573 15.6752 73.6234 17.2955 74.4061 19.3139C75.1887 21.3324 75.5801 23.8177 75.5801 26.7699V28.8295H51.1937V24.6278H70.6369C70.6369 22.8428 70.2799 21.25 69.5659 19.8494C68.8656 18.4489 67.8632 17.3435 66.5588 16.5334C65.2681 15.7232 63.7439 15.3182 61.9863 15.3182C60.0502 15.3182 58.3751 15.7988 56.9608 16.7599C55.5602 17.7074 54.4823 18.9432 53.7271 20.4673C52.9719 21.9915 52.5943 23.6255 52.5943 25.3693V28.1705C52.5943 30.5597 53.0062 32.585 53.8301 34.2464C54.6677 35.8942 55.8279 37.1506 57.3109 38.0156C58.7939 38.867 60.5171 39.2926 62.4806 39.2926C63.7576 39.2926 64.911 39.1141 65.9409 38.7571C66.9844 38.3864 67.8838 37.8371 68.639 37.1094C69.3942 36.3679 69.9778 35.4479 70.3897 34.3494L75.0858 35.6676C74.5914 37.2604 73.7607 38.661 72.5936 39.8693C71.4264 41.0639 69.9847 41.9976 68.2683 42.6705C66.5519 43.3295 64.6227 43.6591 62.4806 43.6591ZM107.881 11.3636L96.1818 43H91.2386L79.5398 11.3636H84.8125L93.5455 36.5739H93.875L102.608 11.3636H107.881ZM126.428 43.6591C123.38 43.6591 120.75 42.9863 118.539 41.6406C116.342 40.2812 114.647 38.3864 113.452 35.956C112.271 33.5118 111.681 30.6695 111.681 27.429C111.681 24.1884 112.271 21.3324 113.452 18.8608C114.647 16.3755 116.308 14.4394 118.436 13.0526C120.578 11.652 123.078 10.9517 125.934 10.9517C127.581 10.9517 129.208 11.2263 130.815 11.7756C132.422 12.3248 133.884 13.2173 135.202 14.4531C136.52 15.6752 137.571 17.2955 138.353 19.3139C139.136 21.3324 139.527 23.8177 139.527 26.7699V28.8295H115.141V24.6278H134.584C134.584 22.8428 134.227 21.25 133.513 19.8494C132.813 18.4489 131.81 17.3435 130.506 16.5334C129.215 15.7232 127.691 15.3182 125.934 15.3182C123.998 15.3182 122.322 15.7988 120.908 16.7599C119.507 17.7074 118.43 18.9432 117.674 20.4673C116.919 21.9915 116.542 23.6255 116.542 25.3693V28.1705C116.542 30.5597 116.953 32.585 117.777 34.2464C118.615 35.8942 119.775 37.1506 121.258 38.0156C122.741 38.867 124.464 39.2926 126.428 39.2926C127.705 39.2926 128.858 39.1141 129.888 38.7571C130.932 38.3864 131.831 37.8371 132.586 37.1094C133.342 36.3679 133.925 35.4479 134.337 34.3494L139.033 35.6676C138.539 37.2604 137.708 38.661 136.541 39.8693C135.374 41.0639 133.932 41.9976 132.216 42.6705C130.499 43.3295 128.57 43.6591 126.428 43.6591ZM151.782 0.818181V43H146.922V0.818181H151.782ZM205.339 0.818181H210.447V28.7472C210.447 31.6307 209.767 34.2053 208.407 36.4709C207.062 38.7228 205.16 40.5009 202.702 41.8054C200.244 43.0961 197.361 43.7415 194.052 43.7415C190.742 43.7415 187.859 43.0961 185.401 41.8054C182.943 40.5009 181.035 38.7228 179.675 36.4709C178.33 34.2053 177.657 31.6307 177.657 28.7472V0.818181H182.765V28.3352C182.765 30.3949 183.218 32.228 184.124 33.8345C185.03 35.4273 186.321 36.6837 187.996 37.6037C189.685 38.5099 191.704 38.9631 194.052 38.9631C196.4 38.9631 198.418 38.5099 200.107 37.6037C201.796 36.6837 203.087 35.4273 203.979 33.8345C204.885 32.228 205.339 30.3949 205.339 28.3352V0.818181ZM219.988 54.8636V11.3636H224.684V16.3892H225.261C225.618 15.84 226.112 15.1397 226.744 14.2884C227.389 13.4233 228.309 12.6544 229.504 11.9815C230.712 11.295 232.346 10.9517 234.406 10.9517C237.069 10.9517 239.417 11.6177 241.45 12.9496C243.482 14.2815 245.068 16.1695 246.207 18.6136C247.347 21.0578 247.917 23.9413 247.917 27.2642C247.917 30.6146 247.347 33.5187 246.207 35.9766C245.068 38.4207 243.489 40.3156 241.47 41.6612C239.452 42.9931 237.124 43.6591 234.488 43.6591C232.456 43.6591 230.829 43.3227 229.607 42.6499C228.384 41.9633 227.444 41.1875 226.785 40.3224C226.126 39.4437 225.618 38.7159 225.261 38.1392H224.849V54.8636H219.988ZM224.766 27.1818C224.766 29.571 225.116 31.6787 225.817 33.505C226.517 35.3175 227.54 36.7386 228.886 37.7685C230.231 38.7846 231.879 39.2926 233.829 39.2926C235.861 39.2926 237.557 38.7571 238.916 37.6861C240.289 36.6013 241.319 35.1458 242.006 33.3196C242.706 31.4796 243.056 29.4337 243.056 27.1818C243.056 24.9574 242.713 22.9527 242.026 21.1676C241.353 19.3688 240.33 17.9477 238.957 16.9041C237.598 15.8468 235.888 15.3182 233.829 15.3182C231.852 15.3182 230.19 15.8194 228.844 16.8217C227.499 17.8104 226.483 19.1972 225.796 20.9822C225.11 22.7535 224.766 24.8201 224.766 27.1818ZM261.758 0.818181L261.346 31.1364H256.567L256.156 0.818181H261.758ZM258.957 43.3295C257.941 43.3295 257.069 42.9657 256.341 42.2379C255.613 41.5102 255.249 40.6383 255.249 39.6222C255.249 38.6061 255.613 37.7341 256.341 37.0064C257.069 36.2786 257.941 35.9148 258.957 35.9148C259.973 35.9148 260.845 36.2786 261.572 37.0064C262.3 37.7341 262.664 38.6061 262.664 39.6222C262.664 40.295 262.492 40.9129 262.149 41.4759C261.82 42.0388 261.373 42.492 260.81 42.8352C260.261 43.1648 259.643 43.3295 258.957 43.3295Z" fill="white"/>
</svg>
