<svg width="512" height="512" viewBox="0 0 512 512" fill="none" xmlns="http://www.w3.org/2000/svg">
<g clip-path="url(#clip0_53_23)">
<rect width="512" height="512" fill="#4C4C4C"/>
<circle cx="125.465" cy="396.949" r="64" transform="rotate(-43.3846 125.465 396.949)" fill="white"/>
<rect x="134.664" y="371.743" width="62" height="24" transform="rotate(-43.3846 134.664 371.743)" fill="white"/>
<rect x="149" y="365.073" width="65" height="14" transform="rotate(-43.3846 149 365.073)" fill="white"/>
<path d="M206.64 396.711C206.64 442.075 169.865 478.85 124.5 478.85C79.1361 478.85 42.3611 442.075 42.3611 396.711C42.3611 351.347 79.1361 314.572 124.5 314.572C169.865 314.572 206.64 351.347 206.64 396.711ZM46.468 396.711C46.468 439.807 81.4043 474.743 124.5 474.743C167.596 474.743 202.533 439.807 202.533 396.711C202.533 353.615 167.596 318.679 124.5 318.679C81.4043 318.679 46.468 353.615 46.468 396.711Z" fill="white"/>
<circle cx="57.0816" cy="378.13" r="3.85027" transform="rotate(-31.8222 57.0816 378.13)" fill="white"/>
<path d="M58.2816 369.905C56.7458 369.283 55.9993 367.531 56.6824 366.021C64.2896 349.21 77.8921 335.786 94.8869 328.417C111.882 321.048 130.978 320.293 148.449 326.231C150.018 326.764 150.787 328.506 150.191 330.052L149.672 331.4C149.076 332.946 147.341 333.709 145.77 333.183C130.123 327.944 113.052 328.654 97.8482 335.246C82.6449 341.838 70.4581 353.815 63.5884 368.817C62.8986 370.324 61.1557 371.068 59.6199 370.447L58.2816 369.905Z" fill="white"/>
<path d="M491.072 366.633L392.22 355.256L460.633 283L491.072 366.633Z" fill="#DC5F29"/>
<rect x="333.956" y="149" width="119" height="119" transform="rotate(63.9996 333.956 149)" fill="#FF1C14"/>
<rect x="446.769" y="78" width="119" height="119" transform="rotate(13 446.769 78)" fill="#FF1C14"/>
<rect x="223" y="-10.7369" width="119" height="119" transform="rotate(-37.9996 223 -10.7369)" fill="#FF1C14"/>
<path d="M491.902 57.9179L397.043 87.9686L429.918 -5.94894L491.902 57.9179Z" fill="#DC5F29"/>
<path d="M246.809 96.1477L179.831 169.735L161.148 72L246.809 96.1477Z" fill="#DC5F29"/>
</g>
<defs>
<clipPath id="clip0_53_23">
<rect width="512" height="512" fill="white"/>
</clipPath>
</defs>
</svg>
